<svg xmlns="http://www.w3.org/2000/svg" viewBox="219 261 586 502" fill="#000" fill-rule="evenodd"><path d="M 357.5 272.9 C 344.3 275.8, 332.5 282.4, 323.9 291.7 C 316.3 299.8, 313.7 306.8, 300 357.5 C 298.2 364.1, 295.7 373, 294.4 377.3 C 293.1 381.6, 292 385.8, 292 386.6 C 292 388.2, 287.7 400.1, 285.9 403.2 C 285.4 404.2, 285 405.9, 285 407 C 285 408.1, 284 411.3, 282.7 414.2 C 280.1 420.3, 278.6 425.1, 274.9 440.3 C 272.7 449.4, 269.9 460, 269 463 C 268.6 464.4, 267.8 467.3, 267.2 469.5 C 265.3 476.8, 263.8 482.5, 263 485 C 262.2 487.5, 260.7 493.2, 258.8 500.5 C 258.2 502.7, 257.4 505.6, 257 507 C 256.6 508.4, 255.7 511.5, 255 514 C 254.3 516.5, 253.4 519.6, 253 521 C 252.6 522.4, 251.7 525.4, 251.1 527.8 C 250.5 530.1, 249.5 533.9, 248.9 536.3 C 248.3 538.6, 246.4 544.3, 244.8 549 C 233.3 581.8, 233 582.8, 230.5 599.9 C 225.2 636.4, 233.7 668.5, 255.7 695.7 C 263.8 705.7, 283.2 719.1, 298.5 725.2 C 311.5 730.4, 312.7 730.8, 321 732.5 C 325.1 733.4, 330.3 734.5, 332.5 735 C 344.5 737.7, 388.2 735.7, 401.5 731.8 C 423.7 725.5, 442.7 717.7, 455.9 709.7 C 465.3 704, 466.4 704.2, 476.8 714.1 C 490.4 727, 502.2 734.7, 518.5 741.2 C 527 744.5, 530.2 745.5, 540.3 748.1 C 542.6 748.6, 545.9 749.6, 547.5 750.1 C 550.2 751, 576.3 753.3, 583.5 753.2 C 592.5 753.2, 621 751.1, 622 750.5 C 622.7 750.1, 627.2 748.9, 631.9 747.9 C 636.6 746.9, 642.1 745.7, 644 745.1 C 645.9 744.6, 649.1 743.7, 651 743.2 C 656.4 741.8, 680.9 732, 686 729.2 C 702.5 720.1, 724.5 704.5, 735.4 694.1 C 750.8 679.4, 767 656.8, 777.3 635.8 C 786.6 617, 789 609.5, 795.1 579.5 C 796.5 573.1, 795.7 527.6, 794.2 523.5 C 793.6 521.9, 792.6 518.5, 792 516 C 788.9 503.6, 782.3 489.2, 775.5 479.9 C 767.3 468.8, 750 454.5, 738 448.8 C 722.5 441.5, 713.4 438.6, 699.5 436.5 C 693.5 435.7, 685.8 434.5, 682.5 434 C 676.7 433.2, 673.8 433.2, 659.8 434.5 C 653.3 435.1, 637 437.9, 628.5 439.8 C 623.4 441, 612.9 445, 606.4 448.3 C 594.3 454.4, 589.7 450.3, 594 437 C 595.1 433.4, 596.9 427.1, 600 415 C 600.7 412.5, 601.6 409.4, 602 408 C 602.4 406.6, 603.2 403.7, 603.8 401.5 C 605.9 393.4, 607.3 388.4, 609 383 C 611 376.7, 613 369.3, 615.9 357.3 C 616.4 355.2, 617.4 351.5, 618.2 349 C 620.5 341.1, 619.9 322.4, 617.1 317.1 C 613.8 310.9, 606.9 303.8, 600.8 300.4 C 595.6 297.5, 595.3 297.5, 580 297.5 C 564.5 297.5, 564.5 297.5, 557.8 300.8 C 550.6 304.3, 544 310.2, 539 317.6 C 532.2 327.8, 530.3 332.9, 523.1 361 C 516.5 386.8, 512.6 400.7, 509.5 409 C 508.6 411.5, 507.4 415, 506.9 416.7 C 506.4 418.5, 505.1 420.4, 504.1 421 C 502.2 422, 501.5 421.9, 494.5 420 C 473.5 414.2, 436.9 413, 414.2 417.5 C 401.3 420, 398.6 420.7, 389.2 423.6 C 384 425.2, 383.8 425.2, 381.8 423.3 C 379.7 421.1, 379.8 420, 383 408.5 C 383.6 406.3, 384.6 402.8, 385.1 400.8 C 385.6 398.7, 386.4 395.3, 386.9 393.3 C 387.4 391.2, 388.4 387.7, 389 385.5 C 389.6 383.3, 391 378.1, 392 374 C 393 369.9, 394.4 364.7, 395 362.5 C 395.6 360.3, 396.5 356.9, 397 355 C 397.5 353.1, 398.3 349.8, 398.9 347.8 C 401.5 338.9, 402.2 336.1, 404 328.5 C 405 324.1, 406.4 318.5, 407 316 C 410.8 301.5, 401.3 283.2, 386.6 276.5 C 375 271.3, 368.3 270.5, 357.5 272.9 M 415 485.1 C 413.1 485.5, 409.4 486.3, 406.8 486.9 C 391.6 490.2, 376.5 498.2, 359 512.1 C 344.9 523.4, 337.7 532.7, 328.1 552.3 C 314.8 579.4, 312.8 603.6, 321.7 630.2 C 325.9 642.8, 336.9 654.3, 348.6 658.5 C 351.3 659.4, 354.4 660.7, 355.5 661.2 C 360.6 664, 377.6 663.9, 386.4 661 C 412 652.9, 416.9 649.9, 432.6 633.8 C 447.8 618.2, 460.2 596.5, 464 578.7 C 464.5 576.4, 465.4 572.7, 466 570.5 C 466.6 568.3, 468 562.7, 469.1 558 C 471.2 549.2, 472.3 544.7, 474 538.3 C 474.5 536.2, 475.4 532.6, 476 530.3 C 476.5 527.9, 477.5 524.1, 478.1 521.8 C 480.5 512.4, 480.4 509.2, 477.6 504.9 C 472.2 496.8, 457.7 488.2, 444.8 485.6 C 436.7 483.9, 421 483.7, 415 485.1 M 638.5 503.9 C 627.7 506.3, 619.7 509.2, 611.2 513.7 C 571.1 535, 542.4 583, 544.3 625.4 C 545 642.1, 548.3 650.9, 557.9 661.3 C 564.8 668.7, 569.4 671.8, 580 676 C 588.3 679.3, 588.8 679.4, 604.1 679.4 C 613.8 679.5, 620.6 679.1, 622.1 678.4 C 625.1 676.9, 632.2 675, 634.4 675 C 635.4 675, 638.7 673.3, 641.8 671.3 C 644.9 669.2, 649.1 666.6, 651.2 665.5 C 658.6 661.5, 671.4 651.4, 678.4 643.9 C 690.1 631.5, 703 610, 706 598 C 711 578, 711.2 576.4, 710.7 560 C 710.1 537.5, 706.3 527.9, 693.2 515.8 C 685.9 509.1, 680.5 506.5, 668.6 504 C 657.5 501.6, 649 501.6, 638.5 503.9"/></svg>
